<svg width="311" height="77" viewBox="0 0 311 77" fill="none" xmlns="http://www.w3.org/2000/svg">
<path d="M93.8387 48H88.9825V26.309H105.267V30.6796H93.8387V35.6329H104.781V39.9711H93.8387V48ZM109.87 48H104.82L112.816 26.309H119.874L127.87 48H122.593L120.845 43.1762H111.651L109.87 48ZM114.467 35.471L113.237 38.838H119.259L118.028 35.471L116.442 30.5824H116.118L114.467 35.471ZM137.542 48.3237C131.164 48.3237 128.218 45.7338 128.218 40.9423V40.5215H132.977V40.8452C132.977 43.2409 133.851 43.9208 137.768 43.9208C140.52 43.9208 141.2 43.3704 141.2 41.9136C141.2 40.4567 140.876 39.9387 137.833 39.4207L134.013 38.7408C129.869 38.0286 128.121 35.9242 128.121 32.5573C128.121 29.2551 130.549 25.9852 136.765 25.9852C142.948 25.9852 145.538 29.1903 145.538 33.4961V33.7551H140.747V33.399C140.747 31.1328 139.808 30.3882 136.603 30.3882C133.819 30.3882 132.945 31.0033 132.945 32.363C132.945 33.7551 133.527 34.0789 136.053 34.5645L139.905 35.3091C144.47 36.1832 146.024 38.579 146.024 41.7517C146.024 45.2158 143.693 48.3237 137.542 48.3237ZM170.485 48H154.427V26.309H159.284V43.6294H170.485V48ZM180.902 48.3237C174.427 48.3237 170.477 43.9208 170.477 37.1545C170.477 30.3882 174.427 25.9852 180.902 25.9852C187.377 25.9852 191.294 30.3882 191.294 37.1545C191.294 43.9208 187.377 48.3237 180.902 48.3237ZM180.902 43.6294C184.625 43.6294 186.114 42.2373 186.114 37.1545C186.114 32.0717 184.625 30.6796 180.902 30.6796C177.178 30.6796 175.657 32.0717 175.657 37.1545C175.657 42.2373 177.178 43.6294 180.902 43.6294ZM202.853 48.3237C196.637 48.3237 193.237 44.0827 193.237 37.1545C193.237 30.3882 197.187 25.9852 203.791 25.9852C210.234 25.9852 213.698 29.1579 213.698 34.3055V34.4674H208.551V34.3379C208.551 31.6184 207.223 30.6796 203.694 30.6796C199.971 30.6796 198.417 32.0393 198.417 37.1545C198.417 42.3668 200.068 43.6942 204.148 43.6942C207.579 43.6942 209.101 43.1114 209.101 40.5215H203.176V36.4746H213.763V48H209.263V44.6978H209.069C208.421 46.3489 206.705 48.3237 202.853 48.3237ZM221.504 48H216.647V26.309H221.504V48ZM233.654 48.3237C227.276 48.3237 224.33 45.7338 224.33 40.9423V40.5215H229.089V40.8452C229.089 43.2409 229.963 43.9208 233.881 43.9208C236.633 43.9208 237.312 43.3704 237.312 41.9136C237.312 40.4567 236.989 39.9387 233.945 39.4207L230.125 38.7408C225.981 38.0286 224.233 35.9242 224.233 32.5573C224.233 29.2551 226.661 25.9852 232.877 25.9852C239.061 25.9852 241.651 29.1903 241.651 33.4961V33.7551H236.859V33.399C236.859 31.1328 235.92 30.3882 232.715 30.3882C229.931 30.3882 229.057 31.0033 229.057 32.363C229.057 33.7551 229.64 34.0789 232.165 34.5645L236.017 35.3091C240.582 36.1832 242.136 38.579 242.136 41.7517C242.136 45.2158 239.805 48.3237 233.654 48.3237ZM253.755 48H248.899V30.6796H241.906V26.309H260.748V30.6796H253.755V48ZM266.714 48H261.858V26.309H266.714V48ZM279.542 48.3237C273.035 48.3237 269.15 43.9208 269.15 37.1545C269.15 30.3882 273.035 25.9852 279.542 25.9852C285.953 25.9852 289.417 29.3522 289.417 34.7264V35.0178H284.237V34.8559C284.237 31.7479 282.942 30.6796 279.51 30.6796C275.852 30.6796 274.33 32.0069 274.33 37.1545C274.33 42.3021 275.852 43.6294 279.51 43.6294C282.942 43.6294 284.237 42.5611 284.237 39.4531V39.2912H289.417V39.5826C289.417 44.9568 285.953 48.3237 279.542 48.3237ZM301.028 48.3237C294.65 48.3237 291.704 45.7338 291.704 40.9423V40.5215H296.463V40.8452C296.463 43.2409 297.337 43.9208 301.254 43.9208C304.006 43.9208 304.686 43.3704 304.686 41.9136C304.686 40.4567 304.362 39.9387 301.319 39.4207L297.499 38.7408C293.355 38.0286 291.606 35.9242 291.606 32.5573C291.606 29.2551 294.035 25.9852 300.251 25.9852C306.434 25.9852 309.024 29.1903 309.024 33.4961V33.7551H304.233V33.399C304.233 31.1328 303.294 30.3882 300.089 30.3882C297.304 30.3882 296.43 31.0033 296.43 32.363C296.43 33.7551 297.013 34.0789 299.538 34.5645L303.391 35.3091C307.956 36.1832 309.51 38.579 309.51 41.7517C309.51 45.2158 307.179 48.3237 301.028 48.3237Z" fill="black"/>
<rect width="76.2226" height="76.2226" rx="6.47173" fill="url(#paint0_linear_8972_6130)"/>
<mask id="mask0_8972_6130" style="mask-type:alpha" maskUnits="userSpaceOnUse" x="23" y="25" width="29" height="41">
<path d="M33.8633 48.3026C34.1781 48.519 34.3708 48.6713 34.5806 48.7925C37.1301 50.2706 39.69 51.7349 42.2189 53.239C42.5423 53.4329 42.907 53.8933 42.907 54.2343C42.9569 57.7877 42.9379 61.3412 42.9345 64.8946C42.9175 65.0769 42.8888 65.2579 42.8485 65.4364C41.4877 64.661 40.2026 63.9409 38.9296 63.2019C34.0972 60.4031 29.2752 57.5852 24.4325 54.8072C23.8114 54.461 23.5912 54.056 23.5999 53.3446C23.6377 49.9054 23.6291 46.4644 23.6119 43.0235C23.5912 42.8031 23.6386 42.5816 23.7476 42.3893C23.8566 42.1969 24.0218 42.043 24.2209 41.9486C31.8752 37.528 39.5231 33.0993 47.1648 28.6626C48.6649 27.7971 50.165 26.9196 51.7976 25.9711C51.8251 26.3622 51.8578 26.6236 51.8578 26.885C51.8578 30.2688 51.8492 33.6544 51.8733 37.0382C51.8733 37.5834 51.715 37.8915 51.2316 38.1702C45.6887 41.3676 40.1556 44.5801 34.6322 47.8076C34.4069 47.9409 34.1884 48.0932 33.8633 48.3026Z" fill="black"/>
</mask>
<g mask="url(#mask0_8972_6130)">
<rect x="23.7871" y="38.3571" width="33.575" height="20.0272" transform="rotate(30 23.7871 38.3571)" fill="url(#paint1_linear_8972_6130)"/>
<rect x="38.7971" y="11.2595" width="33.575" height="31.5733" transform="rotate(30 38.7971 11.2595)" fill="#00FFB7"/>
</g>
<mask id="mask1_8972_6130" style="mask-type:alpha" maskUnits="userSpaceOnUse" x="23" y="10" width="29" height="29">
<path d="M23.0228 38.3408V37.3552C23.0228 33.9788 23.0333 30.6042 23.0105 27.2278C23.0105 26.681 23.1721 26.371 23.6673 26.0889C32.5711 21.0148 41.469 15.9296 50.3611 10.8333C50.8002 10.5826 51.2533 10.3597 51.8047 10.0671C51.831 10.4642 51.8644 10.7341 51.8644 11.004C51.8644 14.3804 51.8539 17.7568 51.8732 21.1314C51.8732 21.6677 51.7503 22.0021 51.248 22.2929C42.0726 27.5168 32.9036 32.7558 23.7411 38.0099C23.5707 38.1057 23.3811 38.1754 23.0228 38.3408Z" fill="black"/>
</mask>
<g mask="url(#mask1_8972_6130)">
<rect width="33.575" height="20.0272" transform="matrix(0.886659 0.462424 0.462424 -0.886659 24.2723 16.6327)" fill="url(#paint2_linear_8972_6130)"/>
<rect width="33.575" height="31.5733" transform="matrix(0.886659 0.462424 0.462424 -0.886659 9.46277 43.8403)" fill="#00FFB7"/>
</g>
<defs>
<linearGradient id="paint0_linear_8972_6130" x1="76.2226" y1="0" x2="0" y2="76.2226" gradientUnits="userSpaceOnUse">
<stop/>
<stop offset="1" stop-color="#494949"/>
</linearGradient>
<linearGradient id="paint1_linear_8972_6130" x1="40.5746" y1="38.3571" x2="40.5746" y2="58.3842" gradientUnits="userSpaceOnUse">
<stop stop-color="#0F7BB3"/>
<stop offset="1" stop-color="#07DBE5"/>
</linearGradient>
<linearGradient id="paint2_linear_8972_6130" x1="16.7875" y1="0" x2="16.7875" y2="20.0272" gradientUnits="userSpaceOnUse">
<stop stop-color="#0F7BB3"/>
<stop offset="1" stop-color="#07DBE5"/>
</linearGradient>
</defs>
</svg>
